<svg id="Layer_1" data-name="Layer 1" xmlns="http://www.w3.org/2000/svg" viewBox="0 0 949.5 949.5"><defs><style>.cls-1{fill:#fff;}</style></defs><path class="cls-1" d="M481.71,565c-1.5,0-3,0-4.45-.07a8.62,8.62,0,0,1-.16-17.22,70.84,70.84,0,0,0,32.19-9.91l.28-.16a12.11,12.11,0,0,0,1.06-.62l.51-.32c.79-.44,1.44-.84,2.06-1.25l.24-.14a57.08,57.08,0,0,0,6.17-4.41l.17-.14a133.68,133.68,0,0,0,25.41-26.25,213,213,0,0,0,19.61-32,8.63,8.63,0,0,1,7.7-4.74h.06a8.6,8.6,0,0,1,7.69,4.85,328.59,328.59,0,0,1,19,49.28A8.63,8.63,0,0,1,595,532a325.16,325.16,0,0,1-49.26,21.43C522.81,561.07,501.29,565,481.71,565Zm90-69.25A218,218,0,0,1,559,514.82a161.33,161.33,0,0,1-20.64,22.86l1.94-.64a299,299,0,0,0,40.31-17C577.89,511.6,574.93,503.48,571.73,495.71Z"/><path class="cls-1" d="M591,533a8.62,8.62,0,0,1-8.26-6.15,311.55,311.55,0,0,0-18-46.68,219.13,219.13,0,0,0-19.2-32.45,146.58,146.58,0,0,0-15.22-18.16,7.7,7.7,0,0,1-.66-.75,64.78,64.78,0,0,0-5.12-5.77,68.26,68.26,0,0,0-27.38-16.48l-.63-.23a67.42,67.42,0,0,0-20.53-4.5,8.62,8.62,0,0,1,.18-17.22c21.15-.78,44.56,3.09,69.57,11.47a327.43,327.43,0,0,1,50.68,22.23,434.55,434.55,0,0,1,72.79,49.86,8.61,8.61,0,0,1,0,13.21A437.65,437.65,0,0,1,595,532,8.66,8.66,0,0,1,591,533ZM542.91,417.72a163.94,163.94,0,0,1,16.64,19.91,234.71,234.71,0,0,1,20.71,35A320,320,0,0,1,596,511.7a421.3,421.3,0,0,0,54.07-37,412.63,412.63,0,0,0-61.83-41.28,310.5,310.5,0,0,0-48-21.06l-2.93-1A83.18,83.18,0,0,1,542.91,417.72Zm-43.27-10.85Zm0,0h0Zm0,0Zm0,0Zm0,0Zm0,0ZM494,404.66Zm0,0h0Zm0,0v0Zm-.26-.24.26.24Zm0,0h0Zm0,0h0Zm0,0h0Z"/><path class="cls-1" d="M373.92,481.72h0a8.62,8.62,0,0,1-7.7-4.84,319.55,319.55,0,0,1-19-49.31,8.62,8.62,0,0,1,4.2-10.05A322.49,322.49,0,0,1,400.62,396c24.46-8.2,47.41-12.07,68.19-11.51a8.62,8.62,0,0,1,.22,17.22,70.92,70.92,0,0,0-31.9,9.92l-.75.42-.39.22-.33.19c-.77.45-1.5.89-2.27,1.37-.43.26-.82.53-1.22.81l-.29.19c-.77.49-1.46,1-2.06,1.42a7.07,7.07,0,0,1-.63.44c-.25.16-.65.48-1.08.81l-.42.33-.44.32-.11.09-.18.14A134.13,134.13,0,0,0,401.2,445,208.46,208.46,0,0,0,381.63,477,8.63,8.63,0,0,1,373.92,481.72Zm-8.11-52.28c2.69,8.42,5.65,16.55,8.86,24.31a207.45,207.45,0,0,1,12.75-19.08,160.49,160.49,0,0,1,20.66-22.94l-2,.65A301.16,301.16,0,0,0,365.81,429.44Z"/><path class="cls-1" d="M473.23,564.69h-.52a113.42,113.42,0,0,1-27.87-5.07,9.74,9.74,0,0,1-1.74-.6c-13.7-5.39-26.86-14.41-39.12-26.81a168.88,168.88,0,0,1-17.12-20.38,231,231,0,0,1-20.7-35,8.64,8.64,0,0,1,.06-7.62,225.37,225.37,0,0,1,21.2-34.56,151.37,151.37,0,0,1,29-29.91l.84-.64.18-.14c.63-.49,1.4-1.1,2.32-1.69,2.19-1.55,4.57-3.1,7.09-4.61.38-.24.79-.47,1.2-.69l.39-.22.22-.13c12.61-6.88,27.41-10.87,44-11.85a7.08,7.08,0,0,1,1,0A113.48,113.48,0,0,1,502,389.94a9.47,9.47,0,0,1,1.46.54c13.75,5.46,26.91,14.52,39.13,26.91a162.76,162.76,0,0,1,17,20.24,234.71,234.71,0,0,1,20.71,35,8.62,8.62,0,0,1-.06,7.64A230.81,230.81,0,0,1,559,514.82a151.3,151.3,0,0,1-28.65,29.54,73.83,73.83,0,0,1-7.84,5.58c-.79.51-1.63,1-2.56,1.56-.69.45-1.4.86-2.26,1.32-12.5,6.82-27.29,10.82-43.9,11.86ZM449.51,543l.2.06a96,96,0,0,0,23.52,4.37c13.85-.93,26-4.22,36.26-9.79.53-.29.84-.47,1.14-.67l.51-.32c.79-.44,1.44-.84,2.06-1.25l.24-.14a57.08,57.08,0,0,0,6.17-4.41l.17-.14a133.68,133.68,0,0,0,25.41-26.25,209.81,209.81,0,0,0,17.66-28.18,216.39,216.39,0,0,0-17.3-28.61,146.58,146.58,0,0,0-15.22-18.16c-10.67-10.82-22-18.61-33.61-23.16h0A95.79,95.79,0,0,0,473.19,402c-13.78.88-25.94,4.14-36.16,9.7l-.65.36-.39.22-.18.11c-2.23,1.34-4.33,2.7-6.22,4.05-.13.09-.26.18-.4.26s-.65.48-1.08.81l-.42.33-.44.32-.11.09-.18.14A134.13,134.13,0,0,0,401.2,445a204.11,204.11,0,0,0-17.63,28.15,210.51,210.51,0,0,0,17.26,28.56,152.27,152.27,0,0,0,15.39,18.34C426.83,530.79,438,538.51,449.51,543Zm50.13-136.14Zm0,0h0Zm0,0Zm-5.7-2.31h0Zm0,0h0Zm0,0h0Zm0,0Zm0,0h0Zm0,0Zm0,0Zm0,0Zm0,0Zm0,0h0Zm0,0h0Zm0,0h0Zm0,0h0Zm0,0h0Zm0,0h0Zm0,0h0Zm0,0h0Zm0,0h0Zm0,0h0Zm0,0h0Zm0,0h0Zm0,0h0Z"/><path class="cls-1" d="M464.94,565c-19.76,0-41.37-3.9-64.32-11.62A323,323,0,0,1,350,531.2a438,438,0,0,1-72.83-49.86,8.63,8.63,0,0,1,0-13.22,435.16,435.16,0,0,1,74.25-50.61,8.63,8.63,0,0,1,12.32,5.16,301.6,301.6,0,0,0,17.94,46.64,213.35,213.35,0,0,0,19.16,32.42,152.27,152.27,0,0,0,15.39,18.34c.22.22.43.46.63.7a67.09,67.09,0,0,0,5,5.65,68.18,68.18,0,0,0,27.34,16.48l.28.1q.31.09.63.21a67.79,67.79,0,0,0,20.58,4.46,8.62,8.62,0,0,1-.16,17.22C468.69,565,466.82,565,464.94,565ZM447,542.64Zm0,0h0ZM296.3,474.73A413.53,413.53,0,0,0,358.17,516a306.15,306.15,0,0,0,47.93,21l3,1c-1.88-1.92-3.71-4-5.45-6.15a168.81,168.81,0,0,1-16.8-20.06,231,231,0,0,1-20.7-35,311.71,311.71,0,0,1-15.77-39.09A418.75,418.75,0,0,0,296.3,474.73Z"/><path class="cls-1" d="M672.25,604.22a8.47,8.47,0,0,1-1.51-.13L438.87,562.88l3-17,221.74,39.4V355.16L435,404.8,431.33,388,670.42,336a8.63,8.63,0,0,1,10.45,8.43V595.6a8.62,8.62,0,0,1-8.62,8.62Z"/><path class="cls-1" d="M278,604.22a8.61,8.61,0,0,1-8.62-8.62V344.47A8.63,8.63,0,0,1,279.82,336L518.9,388l-3.65,16.84L286.61,355.16V585.31l221.74-39.4,3,17L279.5,604.09A8.56,8.56,0,0,1,278,604.22Z"/><path class="cls-1" d="M473.23,514.86a38.5,38.5,0,1,1,38.5-38.49A38.54,38.54,0,0,1,473.23,514.86Zm0-59.75a21.26,21.26,0,1,0,21.26,21.26A21.27,21.27,0,0,0,473.23,455.11Z"/><path class="cls-1" d="M202,525.56l-56.88,5.66-2.83-28.44c-.92-9.18,3.69-17.75,13.11-18.69,5.7-.57,10.27,1.56,13.66,6.34,1.65-7.23,6.5-11.22,12.57-11.83,9.76-1,16.31,6.16,17.27,15.8Zm-46.74-9.27,11.65-1.16-1.19-12c-.35-3.51-3-5.32-6.38-5a5.64,5.64,0,0,0-5.23,6.57Zm22.2-2.21,11.69-1.16-1.37-13.78a5.67,5.67,0,0,0-6.38-5.41c-3.52.35-5.68,2.85-5.31,6.57Z"/><path class="cls-1" d="M201.27,433.4l-1.71,13.74-56.71-7.07,1.71-13.74Z"/><path class="cls-1" d="M200.55,356.94l-4.68,12.45-10.52-4,9.56-25.4L221,349.84a51.71,51.71,0,0,1-2.61,23.29,38.72,38.72,0,0,1-9.68,15.11c-8.27,7.63-18.89,9.57-29.56,5.56-18.43-6.94-21.69-25.65-15.51-42.07A48.74,48.74,0,0,1,174,335.15l10.86,5.07a43.47,43.47,0,0,0-9.35,14.69c-3.87,10.28-3,21.27,8.57,25.61,10,3.77,18.83-1.28,22.52-11.08A32,32,0,0,0,208.7,360Z"/><path class="cls-1" d="M247.76,281.08l-8.17,10.51-8.87-6.9,16.66-21.44,22,17.1A51.57,51.57,0,0,1,260,301.84a38.8,38.8,0,0,1-13.73,11.56c-10.17,4.84-20.89,3.55-29.89-3.45-15.56-12.09-13.12-30.94-2.35-44.8a49,49,0,0,1,14.87-12.75l8.87,8.07a43.49,43.49,0,0,0-13.28,11.26c-6.74,8.68-9.15,19.45.59,27,8.44,6.57,18.37,4.36,24.8-3.91a31.8,31.8,0,0,0,4.77-8.4Z"/><path class="cls-1" d="M330.67,237.64l-35.2,25.65L261.82,217.1l34.86-25.4,6.86,9.42-23.67,17.25,6.24,8.57,21-15.29,6.84,9.39-21,15.29,6.87,9.42,24-17.5Z"/><path class="cls-1" d="M369.35,218.84l-13,4.76-19.62-53.67,25.49-9.32c11.58-4.23,23.31.39,27.45,11.74a20.64,20.64,0,0,1-3.55,20.07l20.29,12.83L390.8,211l-17-11-10,3.67Zm-15.62-42.72,6.06,16.56,11.58-4.23c4.94-1.81,6.68-6.61,5-11.23-1.83-5-6.27-7.08-11.05-5.33Z"/><path class="cls-1" d="M507,183.81l-13.11-1.25-1.54,16.13-13.79-1.31L484,140.47l26.9,2.57c12.28,1.17,20.88,10.28,19.72,22.47S519.3,185,507,183.81ZM496.69,153.4,495,171l12.15,1.16c5.23.5,8.87-3.08,9.34-8,.51-5.28-2.6-9.08-7.67-9.56Z"/><path class="cls-1" d="M568.38,214.45l-13.14-4.35,18-54.25,13.15,4.35Z"/><path class="cls-1" d="M654.91,192.83a44,44,0,0,1,13.36,12.68l-7,9.82a35,35,0,0,0-11.17-10.7c-9.12-5.56-20.36-6.94-26.62,3.34-5.56,9.13-2,19.15,7.59,25a30.79,30.79,0,0,0,16.53,4.89l-4.49,11a45.5,45.5,0,0,1-20.2-6.64c-14.66-8.94-21-26.18-11.63-41.49C621.44,184,640.32,183.94,654.91,192.83Z"/><path class="cls-1" d="M704.55,249.53,693,237.2l8.68-8.16,32.59,34.69-8.68,8.15L714,259.58l-33,31-9.45-10.06Z"/><path class="cls-1" d="M759.31,298.74,765.7,311l-31.77,16.52c-6.31,3.28-6.77,9.07-3.82,14.74,3.14,6.05,8.23,8.53,14.28,5.39l31.77-16.52,6.39,12.28L750.1,360.3c-13.4,7-24.56-.8-30.63-12.49-6.58-12.65-5.52-25.49,7.4-32.2Z"/><path class="cls-1" d="M744.47,412.76l-2.55-13.61,56.18-10.48,5,26.68c2.26,12.12-4.24,22.92-16.11,25.14a20.68,20.68,0,0,1-19.21-6.82l-16,17.89-3-16.34,13.65-14.92-2-10.51Zm44.71-8.34-17.33,3.23,2.26,12.12c1,5.17,5.42,7.68,10.26,6.78,5.21-1,8-5,7.08-10Z"/><path class="cls-1" d="M748,523.19l4-43.38L808.85,485l-3.94,43-11.61-1.06L796,497.76l-10.57-1L783,522.65l-11.57-1.06,2.37-25.86-11.61-1.07-2.71,29.59Z"/><path class="cls-1" d="M195.72,660.12l-8.05-11.27,46.5-33.22L250,637.72c7.17,10,5.83,22.57-4,29.59a20.69,20.69,0,0,1-20.29,1.93l-7,23L209,678.68l6.08-19.29-6.21-8.69Zm37-26.45-14.35,10.25,7.17,10c3.05,4.29,8.15,4.68,12.15,1.82,4.32-3.08,5.15-7.92,2.19-12.06Z"/><path class="cls-1" d="M282.12,749.53l-33.86-27.41,35.95-44.42,33.53,27.13-7.33,9.07-22.77-18.43L281,703.71l20.18,16.34-7.3,9-20.19-16.34-7.33,9.06,23.09,18.7Z"/><path class="cls-1" d="M376.81,738.72,370.89,749c-1.32-2.08-8.13-7.94-14.34-10.75-4.45-2-8.57-2.5-10.17,1-1.46,3.22,1.24,5.42,3.85,7.62l6.46,5.51c8.33,7.11,11.29,13.21,7.57,21.41-4.32,9.55-15.35,12.45-28,6.7-7.67-3.48-15.28-9.52-17.82-13l6-10.62c.66,2,8.76,8.91,15.93,12.16,4.72,2.14,9.18,2.78,10.77-.71,1.09-2.41,0-4.39-3.34-7.1l-7.19-5.76c-5.91-5.41-11.65-12.12-7.41-21.47,4.4-9.7,15.46-12.49,27.77-6.91C368.5,730.56,373.57,734.76,376.81,738.72Z"/><path class="cls-1" d="M440.74,808.6l-42.94-7.32,9.6-56.34,42.52,7.24L448,763.68l-28.88-4.92-1.78,10.45,25.6,4.36L441,785l-25.6-4.35-2,11.49,29.29,5Z"/><path class="cls-1" d="M496.89,798.52l-2.76,10.82-14.73,1.54,16.49-59.18L512.21,750l28.42,54.49L525.9,806,521,796Zm19-12.82-10.37-21.09-5.82,22.78Z"/><path class="cls-1" d="M593.87,787.9l-12.77,5.35L559,740.54,584,730c11.37-4.77,23.31-.69,28,10.45a20.66,20.66,0,0,1-2.61,20.22l20.87,11.88L614.94,779l-17.48-10.2L587.61,773Zm-17.6-42,6.83,16.26,11.37-4.77c4.85-2,6.36-6.91,4.46-11.46-2-4.89-6.59-6.77-11.28-4.81Z"/><path class="cls-1" d="M653.64,686.06a44.18,44.18,0,0,1,16.47-8.26l6.85,9.94a35.13,35.13,0,0,0-13.86,6.87c-8.34,6.69-13.46,16.79-5.92,26.18,6.69,8.34,17.35,8.36,26.08,1.35a30.72,30.72,0,0,0,10.23-13.88l8.83,8A45.33,45.33,0,0,1,689.2,733c-13.39,10.76-31.75,10.81-43-3.17C634,714.54,640.32,696.76,653.64,686.06Z"/><path class="cls-1" d="M742.11,676.62,734.17,688l-46.83-32.78,7.94-11.34,18.17,12.72,14.2-20.28-18.17-12.72,7.94-11.35L764.25,645l-7.94,11.34-19.14-13.4L723,663.22Z"/></svg>